HIERARCHY
ROOT hip
{
	OFFSET 0.000000 0.000000 0.000000
	CHANNELS 6 Xposition Yposition Zposition Xrotation Zrotation Yrotation 
	JOINT abdomen
	{
		OFFSET 0.000000 3.422050 0.000000
		CHANNELS 3 Xrotation Zrotation Yrotation 
		JOINT chest
		{
			OFFSET 0.000000 8.486693 -0.684411
			CHANNELS 3 Xrotation Zrotation Yrotation 
			JOINT neck
			{
				OFFSET 0.000000 10.266162 -0.273764
				CHANNELS 3 Xrotation Zrotation Yrotation 
				JOINT head
				{
					OFFSET 0.000000 3.148285 0.000000
					CHANNELS 3 Xrotation Zrotation Yrotation 
					End Site
					{
						OFFSET 0.000000 3.148289 0.000000
					}
				}
			}
			JOINT lCollar
			{
				OFFSET 3.422053 6.707223 -0.821293
				CHANNELS 3 Yrotation Zrotation Xrotation 
				JOINT lShldr
				{
					OFFSET 3.285171 0.000000 0.000000
					CHANNELS 3 Zrotation Yrotation Xrotation 
					JOINT lForeArm
					{
						OFFSET 10.129278 0.000000 0.000000
						CHANNELS 3 Yrotation Zrotation Xrotation 
						JOINT lHand
						{
							OFFSET 8.486692 0.000000 0.000000
							CHANNELS 3 Zrotation Yrotation Xrotation 
							End Site
							{
								OFFSET 4.106464 0.000000 0.000000
							}
						}
					}
				}
			}
			JOINT rCollar
			{
				OFFSET -3.558935 6.707223 -0.821293
				CHANNELS 3 Yrotation Zrotation Xrotation 
				JOINT rShldr
				{
					OFFSET -3.148289 0.000000 0.000000
					CHANNELS 3 Zrotation Yrotation Xrotation 
					JOINT rForeArm
					{
						OFFSET -10.266159 0.000000 0.000000
						CHANNELS 3 Yrotation Zrotation Xrotation 
						JOINT rHand
						{
							OFFSET -8.349810 0.000000 0.000000
							CHANNELS 3 Zrotation Yrotation Xrotation 
							End Site
							{
								OFFSET -4.106464 0.000000 0.000000
							}
						}
					}
				}
			}
		}
	}
	JOINT lThigh
	{
		OFFSET 5.338403 -1.642589 1.368821
		CHANNELS 3 Xrotation Zrotation Yrotation 
		JOINT lShin
		{
			OFFSET -2.053232 -20.121670 0.000000
			CHANNELS 3 Xrotation Zrotation Yrotation 
			JOINT lFoot
			{
				OFFSET 0.000000 -19.300380 -1.231939
				CHANNELS 3 Xrotation Yrotation Zrotation 
				End Site
				{
					OFFSET 0.000000 -2.463878 4.653993
				}
			}
		}
	}
	JOINT rThigh
	{
		OFFSET -5.338403 -1.642589 1.368821
		CHANNELS 3 Xrotation Zrotation Yrotation 
		JOINT rShin
		{
			OFFSET 2.053232 -20.121670 0.000000
			CHANNELS 3 Xrotation Zrotation Yrotation 
			JOINT rFoot
			{
				OFFSET 0.000000 -19.300380 -1.231939
				CHANNELS 3 Xrotation Yrotation Zrotation 
				End Site
				{
					OFFSET 0.000000 -2.463878 4.653993
				}
			}
		}
	}
}
MOTION
Frames: 15
Frame Time: 0.049954
0.000000 3.996296 -36.005806 -90.001877 0.000000 0.000000 28.438759 0.000000 0.000000 15.266605 -0.119944 -0.638147 -11.191040 0.000000 0.000000 -27.082281 0.000000 0.000000 9.623717 -2.639360 2.157199 -72.629295 29.618248 2.341650 -75.001434 -0.002089 33.998486 -5.049930 -3.151475 23.690769 -10.154535 2.528718 2.389285 73.323715 -29.645725 2.081618 74.319191 -1.359061 33.980289 5.293958 3.576846 24.048700 -49.998940 27.466385 -30.881229 100.346809 -2.290713 -0.122987 19.921648 4.638653 -2.232000 -49.676697 -26.732470 31.255230 100.346718 2.291162 0.118062 20.102747 -5.044313 3.157114 
0.000000 3.996296 -36.005806 -90.001877 0.000000 0.000000 28.088671 0.000000 0.000000 17.773647 -0.120073 -0.638109 -11.584534 0.000000 0.000000 -27.562815 0.000000 0.000000 9.028766 -3.316048 1.149631 -72.372765 29.572943 2.440012 -75.001434 -0.002089 33.998486 -4.005285 -3.852321 22.999678 -9.393505 3.370031 1.381894 72.812813 -29.557453 2.281729 74.328377 -1.340717 33.980671 4.150828 4.212859 23.212767 -49.821514 27.124767 -31.090513 100.346809 -2.290713 -0.122987 20.011530 4.815037 -2.687557 -49.477154 -26.345915 31.489183 100.346718 2.291162 0.118062 20.207436 -5.244115 3.671589 
0.000000 3.996296 -36.005806 -90.001877 0.000000 0.000000 27.738567 0.000000 0.000000 20.275902 -0.120204 -0.638077 -11.977766 0.000000 0.000000 -28.042732 0.000000 0.000000 8.421865 -3.981789 0.134868 -72.116470 29.527267 2.538087 -75.001434 -0.002089 33.998486 -2.951945 -4.540011 22.295706 -8.617560 4.197216 0.363112 72.302742 -29.467640 2.480742 74.337563 -1.322378 33.981049 2.998321 4.831607 22.364136 -49.643257 26.783789 -31.300285 100.346809 -2.290713 -0.122987 20.102812 4.990655 -3.143393 -49.276558 -25.960205 31.723787 100.346718 2.291162 0.118062 20.313923 -5.442906 4.186429 
0.000000 3.996296 -36.005806 -90.001877 0.000000 0.000000 27.388441 0.000000 0.000000 22.770992 -0.120336 -0.638051 -12.370726 0.000000 0.000000 -28.521999 0.000000 0.000000 7.803208 -4.636133 -0.886966 -71.860390 29.481201 2.635875 -75.001434 -0.002089 33.998486 -1.890091 -5.214014 21.579084 -7.826891 5.009600 -0.666943 71.793541 -29.376303 2.678631 74.346764 -1.304033 33.981430 1.836849 5.432520 21.503265 -49.464191 26.443504 -31.510563 100.346809 -2.290713 -0.122987 20.195498 5.165493 -3.599501 -49.074947 -25.575375 31.959044 100.346718 2.291162 0.118062 20.422194 -5.640663 4.701621 
0.000000 3.996296 -36.005806 -90.001877 0.000000 0.000000 27.038309 0.000000 0.000000 25.256601 -0.120468 -0.638030 -12.763405 0.000000 0.000000 -29.000626 0.000000 0.000000 7.173007 -5.278644 -1.915730 -71.604530 29.434765 2.733379 -75.001434 -0.002089 33.998486 -0.819936 -5.873827 20.850109 -7.021717 5.806529 -1.708122 71.285210 -29.283440 2.875381 74.355942 -1.285693 33.981804 0.666856 6.015058 20.630648 -49.284328 26.103916 -31.721355 100.346809 -2.290713 -0.122987 20.289564 5.339534 -4.055869 -48.872311 -25.191446 32.194954 100.346718 2.291162 0.118062 20.532244 -5.837362 5.217150 
0.000000 3.996296 -36.005806 -90.001877 0.000000 0.000000 26.688187 0.000000 0.000000 24.656879 -0.120447 -0.638164 -13.155796 0.000000 0.000000 -28.467258 0.000000 0.000000 7.327387 -4.687428 -1.683053 -72.116470 29.527267 2.538089 -75.001434 -0.002089 33.998486 -1.453107 -5.280796 21.155245 -7.191605 5.162250 -1.494778 71.826294 -29.392254 2.667383 74.365128 -1.267352 33.982178 1.316423 5.409126 20.959227 -49.643261 26.783792 -31.300291 100.346809 -2.290713 -0.122987 20.102812 4.990655 -3.143393 -49.276558 -25.960201 31.723783 100.346718 2.291162 0.118062 20.313923 -5.442906 4.186429 
0.000000 3.996296 -36.005806 -90.001877 0.000000 0.000000 26.338060 0.000000 0.000000 24.057018 -0.120427 -0.638298 -13.547892 0.000000 0.000000 -27.933094 0.000000 0.000000 7.479277 -4.095444 -1.452100 -72.629295 29.618248 2.341650 -75.001434 -0.002089 33.998486 -2.082837 -4.684158 21.453650 -7.358972 4.517157 -1.283492 72.368484 -29.499359 2.457958 74.374306 -1.249010 33.982544 1.962212 4.799219 21.280737 -49.998940 27.466385 -30.881229 100.346809 -2.290713 -0.122987 19.921648 4.638653 -2.232000 -49.676697 -26.732470 31.255230 100.346718 2.291162 0.118062 20.102747 -5.044313 3.157114 
0.000000 3.996296 -36.005806 -90.001877 0.000000 0.000000 25.987957 0.000000 0.000000 23.457069 -0.120409 -0.638433 -13.939676 0.000000 0.000000 -27.398129 0.000000 0.000000 7.628695 -3.502741 -1.222833 -73.142982 29.707706 2.144087 -75.001434 -0.002089 33.998486 -2.709171 -4.084077 21.745337 -7.523849 3.871314 -1.074223 72.911743 -29.604742 2.247135 74.383492 -1.230666 33.982910 2.604270 4.185512 21.595192 -50.351337 28.151556 -30.464167 100.346809 -2.290713 -0.122987 19.746140 4.283672 -1.321768 -50.072681 -27.508038 30.789267 100.346718 2.291162 0.118062 19.898800 -4.641783 2.129313 
0.000000 3.996296 -36.005806 -90.001877 0.000000 0.000000 25.637865 0.000000 0.000000 22.857046 -0.120392 -0.638568 -14.331151 0.000000 0.000000 -26.862411 0.000000 0.000000 7.775674 -2.909374 -0.995219 -73.657524 29.795631 1.945421 -75.001434 -0.002089 33.998486 -3.332155 -3.480712 22.030300 -7.686274 3.224783 -0.866933 73.456047 -29.708385 2.034937 74.392670 -1.212327 33.983273 3.242641 3.568180 21.902588 -50.700428 28.839163 -30.049089 100.346809 -2.290713 -0.122987 19.576328 3.925852 -0.412770 -50.464470 -28.286703 30.325880 100.346718 2.291162 0.118062 19.702164 -4.235524 1.103135 
0.000000 3.996296 -36.005806 -90.001877 0.000000 0.000000 25.287806 0.000000 0.000000 22.256998 -0.120376 -0.638703 -14.722297 0.000000 0.000000 -26.325939 0.000000 0.000000 7.920229 -2.315392 -0.769222 -74.172867 29.882000 1.745672 -75.001434 -0.002089 33.998486 -3.951837 -2.874224 22.308544 -7.846273 2.577624 -0.661582 74.001358 -29.810280 1.821390 74.401863 -1.193985 33.983635 3.877379 2.947397 22.202930 -51.046188 29.529062 -29.635979 100.346809 -2.290713 -0.122987 19.412281 3.565341 0.494921 -50.852055 -29.068281 29.865061 100.346718 2.291162 0.118062 19.512918 -3.825746 0.078685 
0.000000 3.996296 -36.005806 -90.001877 0.000000 0.000000 24.937773 0.000000 0.000000 21.656946 -0.120362 -0.638838 -15.113109 0.000000 0.000000 -25.788757 0.000000 0.000000 8.062388 -1.720846 -0.544808 -74.688988 29.966803 1.544864 -75.001434 -0.002089 33.998486 -4.568271 -2.264774 22.580074 -8.003881 1.929900 -0.458131 74.547676 -29.910398 1.606514 74.411049 -1.175642 33.983994 4.508533 2.323339 22.496218 -51.388580 30.221111 -29.224823 100.346809 -2.290713 -0.122987 19.254025 3.202282 1.401236 -51.235363 -29.852554 29.406765 100.346718 2.291162 0.118062 19.331127 -3.412661 -0.943939 
0.000000 3.996296 -36.005806 -90.001877 0.000000 0.000000 24.587782 0.000000 0.000000 21.056925 -0.120350 -0.638973 -15.503585 0.000000 0.000000 -25.250868 0.000000 0.000000 8.202172 -1.125789 -0.321942 -75.205879 30.050032 1.343017 -75.001434 -0.002089 33.998486 -5.181507 -1.652525 22.844898 -8.159124 1.281671 -0.256543 75.094963 -30.008743 1.390341 74.420219 -1.157302 33.984341 5.136159 1.696183 22.782459 -51.727596 30.915171 -28.815601 100.346809 -2.290713 -0.122987 19.101616 2.836825 2.306108 -51.614407 -30.639334 28.950996 100.346718 2.291162 0.118062 19.156857 -2.996484 -1.964640 
0.000000 3.996296 -36.005806 -90.001877 0.000000 0.000000 24.237839 0.000000 0.000000 20.456968 -0.120339 -0.639108 -15.893708 0.000000 0.000000 -24.712305 0.000000 0.000000 8.339603 -0.530271 -0.100590 -75.723518 30.131680 1.140153 -75.001434 -0.002089 33.998486 -5.791602 -1.037636 23.103027 -8.312037 0.632998 -0.056779 75.643143 -30.105278 1.172896 74.429413 -1.138959 33.984695 5.760316 1.066104 23.061668 -52.063183 31.611109 -28.408297 100.346809 -2.290713 -0.122987 18.955097 2.469121 3.209471 -51.989101 -31.428410 28.497694 100.346718 2.291162 0.118062 18.990149 -2.577432 -2.983328 
0.000000 3.996296 -36.005806 -90.001877 0.000000 0.000000 23.887949 0.000000 0.000000 19.857117 -0.120329 -0.639244 -16.283474 0.000000 0.000000 -24.173080 0.000000 0.000000 8.474699 0.065656 0.119281 -76.241844 30.211731 0.936302 -75.001434 -0.002089 33.998486 -6.398613 -0.420270 23.354464 -8.462643 -0.016059 0.141198 76.192238 -30.199995 0.954203 74.438591 -1.120618 33.985043 6.381062 0.433278 23.333849 -52.395336 32.308777 -28.002888 100.346809 -2.290713 -0.122987 18.814489 2.099318 4.111261 -52.359436 -32.219574 28.046839 100.346718 2.291162 0.118062 18.831062 -2.155726 -3.999912 
0.000000 3.996296 -36.005806 -90.001877 0.000000 0.000000 23.538109 0.000000 0.000000 19.257391 -0.120320 -0.639379 -16.672869 0.000000 0.000000 -23.633238 0.000000 0.000000 8.607481 0.661943 0.337705 -76.760849 30.290161 0.731476 -75.001434 -0.002089 33.998486 -7.002601 0.199413 23.599224 -8.610972 -0.665439 0.337423 76.742165 -30.292879 0.734295 74.447777 -1.102274 33.985394 6.998461 -0.202121 23.599018 -52.724010 33.008018 -27.599346 100.346809 -2.290713 -0.122987 18.679829 1.727570 5.011420 -52.725376 -33.012634 27.598396 100.346718 2.291162 0.118062 18.679640 -1.731586 -5.014312 
